<mxfile host="app.diagrams.net" agent="Mozilla/5.0 (Windows NT 10.0; Win64; x64; rv:133.0) Gecko/20100101 Firefox/133.0" version="24.9.1">
  <diagram name="Page-1" id="YEhjJKSPnRyHB3b2QTLM">
    <mxGraphModel dx="954" dy="553" grid="1" gridSize="10" guides="1" tooltips="1" connect="1" arrows="1" fold="1" page="1" pageScale="1" pageWidth="850" pageHeight="1100" math="0" shadow="0">
      <root>
        <mxCell id="0" />
        <mxCell id="1" parent="0" />
        <mxCell id="OHewmTsMpt972KVqSZn3-21" style="edgeStyle=orthogonalEdgeStyle;rounded=0;orthogonalLoop=1;jettySize=auto;html=1;exitX=0.5;exitY=0.5;exitDx=0;exitDy=0;exitPerimeter=0;" edge="1" parent="1" source="lUGRWfGARe6teelx05pl-1" target="OHewmTsMpt972KVqSZn3-20">
          <mxGeometry relative="1" as="geometry" />
        </mxCell>
        <mxCell id="OHewmTsMpt972KVqSZn3-25" style="edgeStyle=orthogonalEdgeStyle;rounded=0;orthogonalLoop=1;jettySize=auto;html=1;exitX=0.5;exitY=0.5;exitDx=0;exitDy=0;exitPerimeter=0;entryX=0;entryY=0.5;entryDx=0;entryDy=0;" edge="1" parent="1" source="lUGRWfGARe6teelx05pl-1" target="lUGRWfGARe6teelx05pl-11">
          <mxGeometry relative="1" as="geometry" />
        </mxCell>
        <mxCell id="OHewmTsMpt972KVqSZn3-26" style="edgeStyle=orthogonalEdgeStyle;rounded=0;orthogonalLoop=1;jettySize=auto;html=1;exitX=0.5;exitY=0.5;exitDx=0;exitDy=0;exitPerimeter=0;entryX=0;entryY=0.5;entryDx=0;entryDy=0;" edge="1" parent="1" source="lUGRWfGARe6teelx05pl-1" target="lUGRWfGARe6teelx05pl-12">
          <mxGeometry relative="1" as="geometry" />
        </mxCell>
        <mxCell id="OHewmTsMpt972KVqSZn3-27" style="edgeStyle=orthogonalEdgeStyle;rounded=0;orthogonalLoop=1;jettySize=auto;html=1;exitX=0.5;exitY=0.5;exitDx=0;exitDy=0;exitPerimeter=0;entryX=0;entryY=0.5;entryDx=0;entryDy=0;" edge="1" parent="1" source="lUGRWfGARe6teelx05pl-1" target="lUGRWfGARe6teelx05pl-15">
          <mxGeometry relative="1" as="geometry" />
        </mxCell>
        <mxCell id="OHewmTsMpt972KVqSZn3-28" style="edgeStyle=orthogonalEdgeStyle;rounded=0;orthogonalLoop=1;jettySize=auto;html=1;exitX=0.5;exitY=0.5;exitDx=0;exitDy=0;exitPerimeter=0;entryX=0;entryY=0.5;entryDx=0;entryDy=0;" edge="1" parent="1" source="lUGRWfGARe6teelx05pl-1" target="lUGRWfGARe6teelx05pl-14">
          <mxGeometry relative="1" as="geometry" />
        </mxCell>
        <mxCell id="OHewmTsMpt972KVqSZn3-29" style="edgeStyle=orthogonalEdgeStyle;rounded=0;orthogonalLoop=1;jettySize=auto;html=1;exitX=0.5;exitY=0.5;exitDx=0;exitDy=0;exitPerimeter=0;entryX=0;entryY=0.5;entryDx=0;entryDy=0;" edge="1" parent="1" source="lUGRWfGARe6teelx05pl-1" target="lUGRWfGARe6teelx05pl-13">
          <mxGeometry relative="1" as="geometry">
            <Array as="points">
              <mxPoint x="290" y="120" />
              <mxPoint x="290" y="250" />
            </Array>
          </mxGeometry>
        </mxCell>
        <mxCell id="OHewmTsMpt972KVqSZn3-37" style="edgeStyle=orthogonalEdgeStyle;rounded=0;orthogonalLoop=1;jettySize=auto;html=1;exitX=0.5;exitY=0.5;exitDx=0;exitDy=0;exitPerimeter=0;entryX=0.5;entryY=0;entryDx=0;entryDy=0;" edge="1" parent="1" source="lUGRWfGARe6teelx05pl-1" target="OHewmTsMpt972KVqSZn3-36">
          <mxGeometry relative="1" as="geometry" />
        </mxCell>
        <mxCell id="OHewmTsMpt972KVqSZn3-47" style="edgeStyle=orthogonalEdgeStyle;rounded=0;orthogonalLoop=1;jettySize=auto;html=1;exitX=0.5;exitY=0.5;exitDx=0;exitDy=0;exitPerimeter=0;entryX=0;entryY=0.5;entryDx=0;entryDy=0;" edge="1" parent="1" source="lUGRWfGARe6teelx05pl-1" target="lUGRWfGARe6teelx05pl-16">
          <mxGeometry relative="1" as="geometry">
            <Array as="points">
              <mxPoint x="290" y="120" />
              <mxPoint x="290" y="340" />
            </Array>
          </mxGeometry>
        </mxCell>
        <object label="&lt;div&gt;کاربر&lt;/div&gt;&lt;div&gt;&lt;br&gt;&lt;/div&gt;" user="کاربر" id="lUGRWfGARe6teelx05pl-1">
          <mxCell style="shape=umlActor;verticalLabelPosition=bottom;verticalAlign=top;html=1;outlineConnect=0;fontFamily=Comic Sans MS;" parent="1" vertex="1">
            <mxGeometry x="70" y="90" width="30" height="60" as="geometry" />
          </mxCell>
        </object>
        <mxCell id="OHewmTsMpt972KVqSZn3-42" style="edgeStyle=orthogonalEdgeStyle;rounded=0;orthogonalLoop=1;jettySize=auto;html=1;exitX=0.5;exitY=0.5;exitDx=0;exitDy=0;exitPerimeter=0;entryX=0;entryY=0.5;entryDx=0;entryDy=0;" edge="1" parent="1" source="lUGRWfGARe6teelx05pl-47" target="OHewmTsMpt972KVqSZn3-41">
          <mxGeometry relative="1" as="geometry" />
        </mxCell>
        <mxCell id="OHewmTsMpt972KVqSZn3-44" style="edgeStyle=orthogonalEdgeStyle;rounded=0;orthogonalLoop=1;jettySize=auto;html=1;exitX=0.5;exitY=0.5;exitDx=0;exitDy=0;exitPerimeter=0;" edge="1" parent="1" source="lUGRWfGARe6teelx05pl-47" target="OHewmTsMpt972KVqSZn3-43">
          <mxGeometry relative="1" as="geometry" />
        </mxCell>
        <mxCell id="OHewmTsMpt972KVqSZn3-46" style="edgeStyle=orthogonalEdgeStyle;rounded=0;orthogonalLoop=1;jettySize=auto;html=1;exitX=0.5;exitY=0.5;exitDx=0;exitDy=0;exitPerimeter=0;" edge="1" parent="1" source="lUGRWfGARe6teelx05pl-47" target="OHewmTsMpt972KVqSZn3-45">
          <mxGeometry relative="1" as="geometry" />
        </mxCell>
        <object label="ادمین" user="کاربر" id="lUGRWfGARe6teelx05pl-47">
          <mxCell style="shape=umlActor;verticalLabelPosition=bottom;verticalAlign=top;html=1;outlineConnect=0;fontFamily=Comic Sans MS;" parent="1" vertex="1">
            <mxGeometry x="70" y="560" width="30" height="60" as="geometry" />
          </mxCell>
        </object>
        <mxCell id="OHewmTsMpt972KVqSZn3-52" style="edgeStyle=orthogonalEdgeStyle;rounded=0;orthogonalLoop=1;jettySize=auto;html=1;exitX=0.5;exitY=0.5;exitDx=0;exitDy=0;exitPerimeter=0;entryX=0;entryY=0.5;entryDx=0;entryDy=0;" edge="1" parent="1" source="lUGRWfGARe6teelx05pl-62" target="OHewmTsMpt972KVqSZn3-51">
          <mxGeometry relative="1" as="geometry" />
        </mxCell>
        <mxCell id="OHewmTsMpt972KVqSZn3-54" style="edgeStyle=orthogonalEdgeStyle;rounded=0;orthogonalLoop=1;jettySize=auto;html=1;exitX=0.5;exitY=0.5;exitDx=0;exitDy=0;exitPerimeter=0;" edge="1" parent="1" source="lUGRWfGARe6teelx05pl-62" target="OHewmTsMpt972KVqSZn3-53">
          <mxGeometry relative="1" as="geometry" />
        </mxCell>
        <mxCell id="OHewmTsMpt972KVqSZn3-84" style="edgeStyle=orthogonalEdgeStyle;rounded=0;orthogonalLoop=1;jettySize=auto;html=1;exitX=0.5;exitY=0.5;exitDx=0;exitDy=0;exitPerimeter=0;" edge="1" parent="1" source="lUGRWfGARe6teelx05pl-62" target="OHewmTsMpt972KVqSZn3-83">
          <mxGeometry relative="1" as="geometry" />
        </mxCell>
        <object label="شبکه" user="کاربر" id="lUGRWfGARe6teelx05pl-62">
          <mxCell style="shape=umlActor;verticalLabelPosition=bottom;verticalAlign=top;html=1;outlineConnect=0;fontFamily=Comic Sans MS;" parent="1" vertex="1">
            <mxGeometry x="70" y="730" width="30" height="60" as="geometry" />
          </mxCell>
        </object>
        <mxCell id="OHewmTsMpt972KVqSZn3-10" value="SafeDrive - use cases" style="shape=umlFrame;whiteSpace=wrap;html=1;pointerEvents=0;recursiveResize=0;container=1;collapsible=0;width=160;" vertex="1" parent="1">
          <mxGeometry x="160" y="50" width="620" height="910" as="geometry" />
        </mxCell>
        <mxCell id="lUGRWfGARe6teelx05pl-11" value="ثبت نام" style="ellipse;whiteSpace=wrap;html=1;" parent="OHewmTsMpt972KVqSZn3-10" vertex="1">
          <mxGeometry x="320" y="10" width="60" height="40" as="geometry" />
        </mxCell>
        <mxCell id="lUGRWfGARe6teelx05pl-12" value="رزرو وقت" style="ellipse;whiteSpace=wrap;html=1;" parent="OHewmTsMpt972KVqSZn3-10" vertex="1">
          <mxGeometry x="320" y="50" width="60" height="40" as="geometry" />
        </mxCell>
        <mxCell id="lUGRWfGARe6teelx05pl-13" value="اشتراک فایل" style="ellipse;whiteSpace=wrap;html=1;" parent="OHewmTsMpt972KVqSZn3-10" vertex="1">
          <mxGeometry x="220" y="180" width="60" height="40" as="geometry" />
        </mxCell>
        <mxCell id="lUGRWfGARe6teelx05pl-14" value="دانلود فایل" style="ellipse;whiteSpace=wrap;html=1;" parent="OHewmTsMpt972KVqSZn3-10" vertex="1">
          <mxGeometry x="320" y="130" width="60" height="40" as="geometry" />
        </mxCell>
        <mxCell id="OHewmTsMpt972KVqSZn3-33" style="endArrow=open;endSize=12;dashed=1;html=1;rounded=0;exitX=1;exitY=0.5;exitDx=0;exitDy=0;" edge="1" parent="OHewmTsMpt972KVqSZn3-10" source="lUGRWfGARe6teelx05pl-15" target="OHewmTsMpt972KVqSZn3-30">
          <mxGeometry relative="1" as="geometry" />
        </mxCell>
        <mxCell id="lUGRWfGARe6teelx05pl-15" value="آپلود فایل" style="ellipse;whiteSpace=wrap;html=1;" parent="OHewmTsMpt972KVqSZn3-10" vertex="1">
          <mxGeometry x="320" y="90" width="60" height="40" as="geometry" />
        </mxCell>
        <mxCell id="lUGRWfGARe6teelx05pl-16" value="ورود" style="ellipse;whiteSpace=wrap;html=1;" parent="OHewmTsMpt972KVqSZn3-10" vertex="1">
          <mxGeometry x="220" y="270" width="60" height="40" as="geometry" />
        </mxCell>
        <mxCell id="lUGRWfGARe6teelx05pl-82" style="edgeStyle=orthogonalEdgeStyle;rounded=0;orthogonalLoop=1;jettySize=auto;html=1;exitX=0.5;exitY=1;exitDx=0;exitDy=0;" parent="OHewmTsMpt972KVqSZn3-10" source="lUGRWfGARe6teelx05pl-16" target="lUGRWfGARe6teelx05pl-16" edge="1">
          <mxGeometry relative="1" as="geometry" />
        </mxCell>
        <mxCell id="OHewmTsMpt972KVqSZn3-20" value="مدیریت فایل ها" style="ellipse;whiteSpace=wrap;html=1;" vertex="1" parent="OHewmTsMpt972KVqSZn3-10">
          <mxGeometry x="100" y="380" width="60" height="40" as="geometry" />
        </mxCell>
        <mxCell id="OHewmTsMpt972KVqSZn3-30" value="رمز نگاری با کلید" style="ellipse;whiteSpace=wrap;html=1;" vertex="1" parent="OHewmTsMpt972KVqSZn3-10">
          <mxGeometry x="550" y="90" width="60" height="40" as="geometry" />
        </mxCell>
        <mxCell id="OHewmTsMpt972KVqSZn3-34" value="رمز گشایی" style="ellipse;whiteSpace=wrap;html=1;" vertex="1" parent="OHewmTsMpt972KVqSZn3-10">
          <mxGeometry x="440" y="130" width="60" height="40" as="geometry" />
        </mxCell>
        <mxCell id="OHewmTsMpt972KVqSZn3-35" style="endArrow=open;endSize=12;dashed=1;html=1;rounded=0;exitX=1;exitY=0.5;exitDx=0;exitDy=0;entryX=0;entryY=0.5;entryDx=0;entryDy=0;" edge="1" parent="OHewmTsMpt972KVqSZn3-10" source="lUGRWfGARe6teelx05pl-14" target="OHewmTsMpt972KVqSZn3-34">
          <mxGeometry relative="1" as="geometry">
            <mxPoint x="470" y="130" as="sourcePoint" />
            <mxPoint x="533" y="67" as="targetPoint" />
          </mxGeometry>
        </mxCell>
        <mxCell id="OHewmTsMpt972KVqSZn3-36" value="همگام سازی ابری" style="ellipse;whiteSpace=wrap;html=1;" vertex="1" parent="OHewmTsMpt972KVqSZn3-10">
          <mxGeometry x="40" y="160" width="60" height="40" as="geometry" />
        </mxCell>
        <mxCell id="OHewmTsMpt972KVqSZn3-38" value="اتصال به سرویس ابری" style="ellipse;whiteSpace=wrap;html=1;" vertex="1" parent="OHewmTsMpt972KVqSZn3-10">
          <mxGeometry x="40" y="240" width="60" height="40" as="geometry" />
        </mxCell>
        <mxCell id="OHewmTsMpt972KVqSZn3-40" style="endArrow=open;endSize=12;dashed=1;html=1;rounded=0;exitX=0.5;exitY=1;exitDx=0;exitDy=0;" edge="1" parent="OHewmTsMpt972KVqSZn3-10" source="OHewmTsMpt972KVqSZn3-36" target="OHewmTsMpt972KVqSZn3-38">
          <mxGeometry relative="1" as="geometry">
            <mxPoint x="40" y="160" as="sourcePoint" />
            <mxPoint x="90" y="210" as="targetPoint" />
          </mxGeometry>
        </mxCell>
        <mxCell id="OHewmTsMpt972KVqSZn3-41" value="مدیریت کاربران" style="ellipse;whiteSpace=wrap;html=1;" vertex="1" parent="OHewmTsMpt972KVqSZn3-10">
          <mxGeometry x="400" y="460" width="60" height="40" as="geometry" />
        </mxCell>
        <mxCell id="OHewmTsMpt972KVqSZn3-43" value="مانیتورینگ سرور ها" style="ellipse;whiteSpace=wrap;html=1;" vertex="1" parent="OHewmTsMpt972KVqSZn3-10">
          <mxGeometry x="210" y="630" width="60" height="40" as="geometry" />
        </mxCell>
        <mxCell id="OHewmTsMpt972KVqSZn3-45" value="مدیریت ذخیره سازی" style="ellipse;whiteSpace=wrap;html=1;" vertex="1" parent="OHewmTsMpt972KVqSZn3-10">
          <mxGeometry x="390" y="620" width="60" height="40" as="geometry" />
        </mxCell>
        <mxCell id="OHewmTsMpt972KVqSZn3-48" value="اتصال به شبکه" style="ellipse;whiteSpace=wrap;html=1;" vertex="1" parent="OHewmTsMpt972KVqSZn3-10">
          <mxGeometry x="220" y="400" width="60" height="40" as="geometry" />
        </mxCell>
        <mxCell id="OHewmTsMpt972KVqSZn3-49" style="endArrow=open;endSize=12;dashed=1;html=1;rounded=0;exitX=0.5;exitY=1;exitDx=0;exitDy=0;" edge="1" parent="OHewmTsMpt972KVqSZn3-10" source="lUGRWfGARe6teelx05pl-16" target="OHewmTsMpt972KVqSZn3-48">
          <mxGeometry relative="1" as="geometry">
            <mxPoint x="470" y="250" as="sourcePoint" />
            <mxPoint x="520" y="300" as="targetPoint" />
          </mxGeometry>
        </mxCell>
        <mxCell id="OHewmTsMpt972KVqSZn3-51" value="اتصال کاربران" style="ellipse;whiteSpace=wrap;html=1;" vertex="1" parent="OHewmTsMpt972KVqSZn3-10">
          <mxGeometry x="310" y="660" width="60" height="40" as="geometry" />
        </mxCell>
        <mxCell id="OHewmTsMpt972KVqSZn3-53" value="پیدا کردن فایل ها" style="ellipse;whiteSpace=wrap;html=1;" vertex="1" parent="OHewmTsMpt972KVqSZn3-10">
          <mxGeometry x="80" y="610" width="60" height="40" as="geometry" />
        </mxCell>
        <mxCell id="OHewmTsMpt972KVqSZn3-55" value="تولید کلید خصوصی" style="ellipse;whiteSpace=wrap;html=1;" vertex="1" parent="OHewmTsMpt972KVqSZn3-10">
          <mxGeometry x="490" y="290" width="60" height="40" as="geometry" />
        </mxCell>
        <mxCell id="OHewmTsMpt972KVqSZn3-56" style="endArrow=open;endSize=12;dashed=1;html=1;rounded=0;exitX=0.5;exitY=0;exitDx=0;exitDy=0;entryX=0.5;entryY=0;entryDx=0;entryDy=0;" edge="1" parent="OHewmTsMpt972KVqSZn3-10" source="OHewmTsMpt972KVqSZn3-63" target="OHewmTsMpt972KVqSZn3-55">
          <mxGeometry relative="1" as="geometry">
            <mxPoint x="470" y="170" as="sourcePoint" />
            <mxPoint x="560" y="140" as="targetPoint" />
            <Array as="points">
              <mxPoint x="520" y="140" />
              <mxPoint x="520" y="190" />
            </Array>
          </mxGeometry>
        </mxCell>
        <mxCell id="OHewmTsMpt972KVqSZn3-57" value="تولید کلید عمومی" style="ellipse;whiteSpace=wrap;html=1;" vertex="1" parent="OHewmTsMpt972KVqSZn3-10">
          <mxGeometry x="490" y="410" width="60" height="40" as="geometry" />
        </mxCell>
        <mxCell id="OHewmTsMpt972KVqSZn3-58" style="endArrow=open;endSize=12;dashed=1;html=1;rounded=0;exitX=0.5;exitY=1;exitDx=0;exitDy=0;entryX=0.5;entryY=0;entryDx=0;entryDy=0;" edge="1" parent="OHewmTsMpt972KVqSZn3-10" source="OHewmTsMpt972KVqSZn3-55" target="OHewmTsMpt972KVqSZn3-57">
          <mxGeometry relative="1" as="geometry">
            <mxPoint x="470" y="50" as="sourcePoint" />
            <mxPoint x="520" y="40" as="targetPoint" />
          </mxGeometry>
        </mxCell>
        <mxCell id="OHewmTsMpt972KVqSZn3-61" style="endArrow=open;endSize=12;dashed=1;html=1;rounded=0;exitX=0;exitY=0.5;exitDx=0;exitDy=0;entryX=1;entryY=1;entryDx=0;entryDy=0;" edge="1" parent="OHewmTsMpt972KVqSZn3-10" source="OHewmTsMpt972KVqSZn3-57" target="OHewmTsMpt972KVqSZn3-48">
          <mxGeometry relative="1" as="geometry">
            <mxPoint x="550" y="60" as="sourcePoint" />
            <mxPoint x="550" y="100" as="targetPoint" />
            <Array as="points" />
          </mxGeometry>
        </mxCell>
        <mxCell id="OHewmTsMpt972KVqSZn3-63" value="تولید کلمات تصادفی" style="ellipse;whiteSpace=wrap;html=1;" vertex="1" parent="OHewmTsMpt972KVqSZn3-10">
          <mxGeometry x="490" y="20" width="60" height="40" as="geometry" />
        </mxCell>
        <mxCell id="OHewmTsMpt972KVqSZn3-64" style="endArrow=open;endSize=12;dashed=1;html=1;rounded=0;exitX=1;exitY=0.5;exitDx=0;exitDy=0;entryX=0;entryY=0.5;entryDx=0;entryDy=0;" edge="1" parent="OHewmTsMpt972KVqSZn3-10" source="lUGRWfGARe6teelx05pl-11" target="OHewmTsMpt972KVqSZn3-63">
          <mxGeometry relative="1" as="geometry">
            <mxPoint x="470" y="50" as="sourcePoint" />
            <mxPoint x="520" y="40" as="targetPoint" />
          </mxGeometry>
        </mxCell>
        <mxCell id="OHewmTsMpt972KVqSZn3-65" value="ورود کلمات تصادفی" style="ellipse;whiteSpace=wrap;html=1;" vertex="1" parent="OHewmTsMpt972KVqSZn3-10">
          <mxGeometry x="370" y="260" width="60" height="40" as="geometry" />
        </mxCell>
        <mxCell id="OHewmTsMpt972KVqSZn3-66" style="endArrow=open;endSize=12;dashed=1;html=1;rounded=0;exitX=1;exitY=0.5;exitDx=0;exitDy=0;entryX=0.083;entryY=0.675;entryDx=0;entryDy=0;entryPerimeter=0;" edge="1" parent="OHewmTsMpt972KVqSZn3-10" source="lUGRWfGARe6teelx05pl-16" target="OHewmTsMpt972KVqSZn3-65">
          <mxGeometry relative="1" as="geometry">
            <mxPoint x="390" y="280" as="sourcePoint" />
            <mxPoint x="455" y="309" as="targetPoint" />
          </mxGeometry>
        </mxCell>
        <mxCell id="OHewmTsMpt972KVqSZn3-70" value="تولید کلید مشترک" style="ellipse;whiteSpace=wrap;html=1;" vertex="1" parent="OHewmTsMpt972KVqSZn3-10">
          <mxGeometry x="430" y="200" width="60" height="40" as="geometry" />
        </mxCell>
        <mxCell id="OHewmTsMpt972KVqSZn3-71" style="endArrow=open;endSize=12;dashed=1;html=1;rounded=0;exitX=0.5;exitY=1;exitDx=0;exitDy=0;" edge="1" parent="OHewmTsMpt972KVqSZn3-10" source="lUGRWfGARe6teelx05pl-13" target="OHewmTsMpt972KVqSZn3-70">
          <mxGeometry relative="1" as="geometry">
            <mxPoint x="390" y="160" as="sourcePoint" />
            <mxPoint x="560" y="180" as="targetPoint" />
          </mxGeometry>
        </mxCell>
        <mxCell id="OHewmTsMpt972KVqSZn3-72" style="endArrow=open;endSize=12;dashed=1;html=1;rounded=0;exitX=1;exitY=0.5;exitDx=0;exitDy=0;entryX=0;entryY=1;entryDx=0;entryDy=0;" edge="1" parent="OHewmTsMpt972KVqSZn3-10" source="lUGRWfGARe6teelx05pl-13" target="OHewmTsMpt972KVqSZn3-34">
          <mxGeometry relative="1" as="geometry">
            <mxPoint x="390" y="160" as="sourcePoint" />
            <mxPoint x="560" y="180" as="targetPoint" />
          </mxGeometry>
        </mxCell>
        <mxCell id="OHewmTsMpt972KVqSZn3-77" style="endArrow=open;endSize=12;dashed=1;html=1;rounded=0;exitX=0.967;exitY=0.775;exitDx=0;exitDy=0;entryX=0;entryY=1;entryDx=0;entryDy=0;exitPerimeter=0;" edge="1" parent="OHewmTsMpt972KVqSZn3-10" source="OHewmTsMpt972KVqSZn3-65" target="OHewmTsMpt972KVqSZn3-55">
          <mxGeometry relative="1" as="geometry">
            <mxPoint x="490" y="293" as="sourcePoint" />
            <mxPoint x="545" y="300" as="targetPoint" />
          </mxGeometry>
        </mxCell>
        <mxCell id="OHewmTsMpt972KVqSZn3-80" style="endArrow=open;endSize=12;dashed=1;html=1;rounded=0;exitX=1;exitY=0.5;exitDx=0;exitDy=0;entryX=0.5;entryY=1;entryDx=0;entryDy=0;" edge="1" parent="OHewmTsMpt972KVqSZn3-10" source="OHewmTsMpt972KVqSZn3-70" target="OHewmTsMpt972KVqSZn3-30">
          <mxGeometry relative="1" as="geometry">
            <mxPoint x="500" y="230" as="sourcePoint" />
            <mxPoint x="660" y="230" as="targetPoint" />
          </mxGeometry>
        </mxCell>
        <mxCell id="OHewmTsMpt972KVqSZn3-83" value="دخیره فایل ها در همتا ها" style="ellipse;whiteSpace=wrap;html=1;" vertex="1" parent="1">
          <mxGeometry x="320" y="860" width="60" height="40" as="geometry" />
        </mxCell>
      </root>
    </mxGraphModel>
  </diagram>
</mxfile>
